<svg xmlns="http://www.w3.org/2000/svg" width="18.162" height="19.157" viewBox="0 0 18.162 19.157"><path d="M15.081,5.016a2.643,2.643,0,0,0-1.638.566h0l-6,4.728A3.786,3.786,0,0,0,6,13.281v9.126a1.778,1.778,0,0,0,1.766,1.766H22.4a1.778,1.778,0,0,0,1.766-1.766V13.281a3.786,3.786,0,0,0-1.443-2.972l-6-4.728A2.643,2.643,0,0,0,15.081,5.016Zm0,1.51a1.132,1.132,0,0,1,.7.245l6,4.728a2.269,2.269,0,0,1,.865,1.783v9.126a.241.241,0,0,1-.252.252H21.135V18.882a1.778,1.778,0,0,0-1.766-1.766h-.757V13.837a1.778,1.778,0,0,0-1.766-1.766H13.315a1.778,1.778,0,0,0-1.766,1.766v3.279h-.757a1.778,1.778,0,0,0-1.766,1.766v3.778H7.766a.241.241,0,0,1-.252-.252V13.281A2.269,2.269,0,0,1,8.379,11.5l6-4.727A1.132,1.132,0,0,1,15.081,6.525Zm-1.766,7.059h3.531a.241.241,0,0,1,.252.252v3.279H13.063V13.837A.241.241,0,0,1,13.315,13.584Zm-2.522,5.045h3.531v4.03H10.54V18.882A.241.241,0,0,1,10.793,18.629Zm5.045,0h3.531a.241.241,0,0,1,.252.252v3.778H15.838Z" transform="translate(-6 -5.016)"/></svg>