<svg xmlns="http://www.w3.org/2000/svg" width="26.433" height="26.433" viewBox="0 0 26.433 26.433"><defs><style>.a{fill:#fff;}</style></defs><path class="a" d="M12.772,5A7.8,7.8,0,0,0,5,12.772V23.661a7.8,7.8,0,0,0,7.772,7.772H23.661a7.8,7.8,0,0,0,7.772-7.772V12.772A7.8,7.8,0,0,0,23.661,5Zm0,2.4H23.661a5.362,5.362,0,0,1,5.369,5.369V23.661a5.362,5.362,0,0,1-5.369,5.369H12.772A5.362,5.362,0,0,1,7.4,23.661V12.772A5.362,5.362,0,0,1,12.772,7.4Zm12.541,2.628A1.089,1.089,0,1,0,26.4,11.12,1.084,1.084,0,0,0,25.313,10.031Zm-7.1.976a7.209,7.209,0,1,0,7.209,7.209A7.229,7.229,0,0,0,18.217,11.008Zm0,2.4a4.806,4.806,0,1,1-4.806,4.806A4.785,4.785,0,0,1,18.217,13.411Z" transform="translate(-5 -5)"/></svg>