<svg xmlns="http://www.w3.org/2000/svg" width="26.433" height="26.433" viewBox="0 0 26.433 26.433"><defs><style>.a{fill:#fff;}</style></defs><path class="a" d="M10.038,6A4.055,4.055,0,0,0,6,10.038V28.395a4.055,4.055,0,0,0,4.038,4.038H28.395a4.055,4.055,0,0,0,4.038-4.038V10.038A4.055,4.055,0,0,0,28.395,6Zm0,2.2H28.395a1.819,1.819,0,0,1,1.836,1.836V28.395a1.819,1.819,0,0,1-1.836,1.836H23.622V22.888h2.662a.735.735,0,0,0,.729-.644l.275-2.2a.736.736,0,0,0-.729-.825H23.622v-2.57a1.47,1.47,0,0,1,1.469-1.469h1.469a.734.734,0,0,0,.734-.734V11.966a.734.734,0,0,0-.668-.731c-.043,0-1.079-.095-2.391-.095-3.236,0-5.018,1.921-5.018,5.409v2.667H16.28a.734.734,0,0,0-.734.734v2.2a.734.734,0,0,0,.734.734h2.937v7.343H10.038A1.819,1.819,0,0,1,8.2,28.395V10.038A1.819,1.819,0,0,1,10.038,8.2Z" transform="translate(-6 -6)"/></svg>