<svg xmlns="http://www.w3.org/2000/svg" width="21.618" height="19.157" viewBox="0 0 21.618 19.157"><path d="M12.072,3.01a2.111,2.111,0,0,0-1.5.615L7.756,6.444H6.294l-.032-.168a2.219,2.219,0,0,0-2.172-1.8H2.737a.737.737,0,1,0,0,1.474H4.091a.731.731,0,0,1,.724.6l.147.768,1.584,8.321a3.2,3.2,0,0,0,3.138,2.6h9.2a3.2,3.2,0,0,0,3.138-2.6L23.605,7.32a.737.737,0,0,0-.724-.875H20.73l-2.369-2.37a1.955,1.955,0,0,0-2.749,0l-.8.8L13.569,3.626h0A2.11,2.11,0,0,0,12.072,3.01Zm0,1.464a.64.64,0,0,1,.454.193L14.3,6.444H9.841l1.776-1.777A.641.641,0,0,1,12.072,4.474Zm4.913.5a.47.47,0,0,1,.333.143l1.327,1.328H16.389l-.532-.532.8-.8A.468.468,0,0,1,16.986,4.973ZM6.575,7.918h13.74a.737.737,0,0,0,.242,0h1.434l-1.418,7.447a1.712,1.712,0,0,1-1.69,1.4h-9.2a1.713,1.713,0,0,1-1.69-1.4h0Zm4.268,11.3a1.474,1.474,0,1,0,1.474,1.474A1.474,1.474,0,0,0,10.844,19.219Zm6.879,0A1.474,1.474,0,1,0,19.2,20.693,1.474,1.474,0,0,0,17.723,19.219Z" transform="translate(-2 -3.01)"/></svg>